# xmcd
#
# Track frame offsets: 
#        187
#        13300
#        25675
#        40525
#        52300
#        62500
#        78100
#        93325
#        107050
#        118300
#        131650
#        145375
#        159925
#        173050
#        185425
#        197047
#        214225
#        224500
#        239200
#        249625
#
# Disc length: 3546 seconds
#
# Revision: 6
# Processed by: cddbd v1.5.2PL0 Copyright (c) Steve Scherf et al.
# Submitted via: ExactAudioCopy v1.3
#
DISCID=270dd814
DTITLE=Various Artist - Country Memories Disc 2
DYEAR=1993
DGENRE=Country
TTITLE0=Lynn Anderson - Rose Garden
TTITLE1=Donna Fargo - Funny Face
TTITLE2=Waylon Jennings - Luckenbach Texas (Back To The Basics Of Love
TTITLE2=)
TTITLE3=Freddy Fender - Before The Next Teardrop Falls
TTITLE4=Statler Brothers - Do You Know You Are My Sunshine
TTITLE5=Don Williams - Til The Rivers All Run Dry
TTITLE6=B.J. Thomas - (Hey Won't You Play) Another Somebody Done Someb
TTITLE6=ody Wrong Song
TTITLE7=Barbara Fairchild - Teddy Bear Song
TTITLE8=Freddie Hart - Easy Loving
TTITLE9=Waylon Jennings - Amanda
TTITLE10=Conway Twitty - You've Never Been This Far Before
TTITLE11=Melba Montgomery - No Charge
TTITLE12=Jack Greene - Statue Of A Fool
TTITLE13=Jerry Wallace - If You Leave Me Tonight I'll Cry
TTITLE14=Sammi Smith - Help Me Make It Through The Night
TTITLE15=C.W. McCall - Convoy
TTITLE16=Billy Crash Craddock - Rub It In
TTITLE17=Jeannie C. Riley - Harper Valley P.T.A.
TTITLE18=Jerry Reed - When You're Hot You're Hot
TTITLE19=Cal Smith - Country Bumpkin
EXTD=
EXTT0=
EXTT1=
EXTT2=
EXTT3=
EXTT4=
EXTT5=
EXTT6=
EXTT7=
EXTT8=
EXTT9=
EXTT10=
EXTT11=
EXTT12=
EXTT13=
EXTT14=
EXTT15=
EXTT16=
EXTT17=
EXTT18=
EXTT19=
PLAYORDER=
